<?xml version="1.0" encoding="UTF-8" standalone="no"?>
<!-- Created with Inkscape (http://www.inkscape.org/) -->

<svg
   width="7in"
   height="20in"
   viewBox="0 0 177.8 508"
   version="1.1"
   id="svg1"
   xml:space="preserve"
   inkscape:version="1.4.2 (f4327f4, 2025-05-13)"
   sodipodi:docname="Liner Stand 20 AWG Top Slot.svg"
   xmlns:inkscape="http://www.inkscape.org/namespaces/inkscape"
   xmlns:sodipodi="http://sodipodi.sourceforge.net/DTD/sodipodi-0.dtd"
   xmlns="http://www.w3.org/2000/svg"
   xmlns:svg="http://www.w3.org/2000/svg"><sodipodi:namedview
     id="namedview1"
     pagecolor="#ffffff"
     bordercolor="#000000"
     borderopacity="0.25"
     inkscape:showpageshadow="2"
     inkscape:pageopacity="0.0"
     inkscape:pagecheckerboard="0"
     inkscape:deskcolor="#d1d1d1"
     inkscape:document-units="in"
     inkscape:zoom="0.2692943"
     inkscape:cx="-725.97156"
     inkscape:cy="1190.1477"
     inkscape:window-width="1920"
     inkscape:window-height="1057"
     inkscape:window-x="-8"
     inkscape:window-y="-6"
     inkscape:window-maximized="1"
     inkscape:current-layer="g7" /><defs
     id="defs1"><marker
       id="DistanceX"
       orient="auto"
       refX="0"
       refY="0"
       style="overflow:visible"><path
         d="M 3,-3 -3,3 M 0,-5 V 5"
         style="stroke:#000000;stroke-width:0.5"
         id="path1" /></marker><pattern
       id="Hatch"
       patternUnits="userSpaceOnUse"
       width="8"
       height="8"
       x="0"
       y="0"><path
         d="M8 4 l-4,4"
         stroke="#000000"
         stroke-width="0.25"
         linecap="square"
         id="path2" /><path
         d="M6 2 l-4,4"
         stroke="#000000"
         stroke-width="0.25"
         linecap="square"
         id="path3" /><path
         d="M4 0 l-4,4"
         stroke="#000000"
         stroke-width="0.25"
         linecap="square"
         id="path4" /></pattern><symbol
       id="*Model_Space" /><symbol
       id="*Paper_Space" /><symbol
       id="*Paper_Space0" /></defs><g
     inkscape:label="Layer 1"
     inkscape:groupmode="layer"
     id="layer1"><g
       inkscape:label="0"
       id="g7"
       transform="matrix(0.26458333,0,0,0.26458333,88.449355,185.72605)"><path
         d="M 163.32532,661.93012 A 36.000001,36.000001 0 0 1 91.602544,668.2423 L 57.937622,285.72083 a 36.000001,36.000001 0 0 1 71.722778,-6.31217 z"
         style="fill:none;stroke:#000000;stroke-width:1.00157481;stroke-dasharray:none"
         id="path5" /><path
         d="m -91.602544,668.2423 a 36.000001,36.000001 0 0 1 -71.722776,-6.31218 l 33.66492,-382.52146 a 36.000001,36.000001 0 0 1 71.722778,6.31217 z"
         style="fill:none;stroke:#000000"
         id="path6" /><path
         d="m -1.728,-509.48032 -0.959624,-95.96237 a 96,96 0 0 0 -92.942743,87.54615 L -237.70264,1096.4156 a 24,24 0 0 0 23.9076,26.1041 h 427.59008 a 24,24 0 0 0 23.9076,-26.1041 L 95.630367,-517.89654 A 96,96 0 0 0 2.687624,-605.44269 L 1.728,-509.48032 v 768.192 h -3.456 z"
         style="fill:none;stroke:#000000"
         id="path7" /></g></g></svg>
